<?xml version="1.0" encoding="utf-8"?>
<!-- Generator: Adobe Illustrator 22.1.0, SVG Export Plug-In . SVG Version: 6.00 Build 0)  -->
<!DOCTYPE svg PUBLIC "-//W3C//DTD SVG 1.1//EN" "http://www.w3.org/Graphics/SVG/1.1/DTD/svg11.dtd">
<svg version="1.1" id="Laag_1" xmlns="http://www.w3.org/2000/svg" xmlns:xlink="http://www.w3.org/1999/xlink" x="0px" y="0px"
	 viewBox="0 0 650 135" style="enable-background:new 0 0 650 135;" xml:space="preserve">
<style type="text/css">
	.st0{fill:#33CC66;}
</style>
<path class="st0" d="M25,27.8h14.5v84.5H25V27.8z"/>
<path class="st0" d="M437.3,48.9h14.5v63.4h-14.5V48.9z"/>
<g>
	<g>
		<polygon class="st0" points="46.4,112.4 61,112.4 61,56.9 46.4,36.1 		"/>
		<polygon class="st0" points="120.7,28.1 105,28.1 105,74.2 120.7,96.5 		"/>
		<polygon class="st0" points="67.5,28.1 61,28.1 46.4,28.1 46.4,29.5 79.5,76.7 79.5,76.7 105,112.4 120.7,112.4 120.7,103.2 
			95.1,66.7 		"/>
	</g>
</g>
<g>
	<g>
		<polygon class="st0" points="625,96.7 625,28.1 609.4,28.1 609.4,74.4 		"/>
		<polygon class="st0" points="550.7,36.3 550.7,112.4 565.3,112.4 565.3,57.1 		"/>
		<polygon class="st0" points="594.8,60.1 571.9,28.1 565.3,28.1 550.7,28.1 550.7,29.6 579.7,71.1 609.4,112.4 625,112.4 
			625,103.3 		"/>
	</g>
</g>
<g>
	<g>
		<polygon class="st0" points="204.4,97 204.4,28.1 188.8,28.1 188.8,74.6 		"/>
		<path class="st0" d="M169.6,53.8c-0.1-0.1-0.1-0.2-0.1-0.3l-18.1-25.3h-6.6h-14.6v1.8l21,30l37.7,52.5h15.6v-8.8L169.6,53.8z"/>
		<polygon class="st0" points="130.1,36.5 130.1,112.4 144.7,112.4 144.7,57.3 		"/>
	</g>
</g>
<g>
	<g>
		<polygon class="st0" points="338.5,110.1 365.7,28.4 346.6,28.4 329.6,81.6 		"/>
		<path class="st0" d="M318.6,59.5c0-0.1,0-0.1,0-0.2l-9.8-30.9h-19l27.3,83.9h18.2L318.6,59.5z"/>
	</g>
</g>
<g>
	<g>
		<path class="st0" d="M250.8,95.5c-2.8-0.2-5.5-0.8-8-2c-3.1-1.4-5.8-3.2-8.1-5.5c-2.3-2.3-4.2-5-5.5-8.1c-1.4-3.1-2.1-6.4-2.1-9.9
			c0-3.5,0.7-6.8,2.1-9.9c1.4-3.1,3.2-5.8,5.5-8.2c2.3-2.3,5-4.2,8.1-5.6c2.5-1.1,5.2-1.8,8-2V26.6c-5.3,0.2-10.3,1.3-15,3.3
			c-5.3,2.3-9.8,5.4-13.8,9.3c-3.9,3.9-7,8.5-9.3,13.8c-2.3,5.3-3.4,11-3.4,17c0,6,1.1,11.7,3.4,16.9c2.3,5.3,5.4,9.8,9.3,13.8
			c3.9,3.9,8.5,7,13.8,9.3c4.7,2,9.7,3.1,15,3.3V95.5z"/>
		<path class="st0" d="M292.8,53c-2.3-5.3-5.4-9.9-9.3-13.8c-3.9-3.9-8.5-7-13.8-9.3c-4.7-2-9.7-3.1-15-3.3v17.8
			c2.8,0.2,5.5,0.8,8,2c3.1,1.4,5.7,3.2,8.1,5.6c2.3,2.4,4.1,5.1,5.5,8.2c1.3,3.1,2,6.4,2,9.9c0,3.5-0.7,6.8-2,9.9
			c-1.3,3.1-3.2,5.8-5.5,8.1c-2.3,2.3-5,4.2-8.1,5.5c-2.5,1.1-5.2,1.8-8,2v17.8c5.3-0.2,10.3-1.3,15-3.3c5.3-2.3,9.9-5.4,13.8-9.3
			c3.9-3.9,7-8.5,9.3-13.8c2.3-5.2,3.5-10.9,3.5-16.9C296.2,63.9,295.1,58.3,292.8,53z"/>
	</g>
</g>
<g>
	<g>
		<path class="st0" d="M396.8,98.5h-7.5c-5,0-6.5-2.4-7.2-4.1l0,0c-0.4-0.9-0.5-1.4-0.5-1.6l0-0.1l0-9.4c0-0.2,0.1-0.5,0.2-1.1
			c0.6-2.7,2.3-4.1,5.3-4.5c0.2,0,0.3,0,0.6-0.1l0-15.5c-0.1,0-0.3,0-1-0.2c-2.8-0.7-4.4-2.3-4.8-5c-0.2-1.2-0.2-1.5-0.2-1.5v-7.6
			c0-4.3,2-6.2,6.5-6.2l8.7,0V26.1h-8c-1.4,0-2.8,0.1-4,0.3c-8,1.1-13.6,4.8-16.6,11.1c-1.4,2.9-2.1,5.6-2.1,8.1v9.4
			c0,1,0.1,2.2,0.3,3.4c0.8,5.3,2.8,9.3,5.9,11.7c-3.1,2.4-5.1,6.3-5.9,11.6c-0.2,1.2-0.3,2.3-0.3,3.4v9.4l0,0.2
			c0.8,7.6,4.5,13.3,11.1,16.7c3.3,1.7,7.2,2.6,11.5,2.6h8V98.5z"/>
		<path class="st0" d="M430,58.3c0.2-1.2,0.3-2.3,0.3-3.4v-9.4c0-2.5-0.7-5.2-2.1-8.1c-3.7-7.5-10.6-11.3-20.6-11.3h-7v15.5l8.5,0
			c3.3,0.3,5,1.7,5.5,4.6c0.2,1.1,0.2,1.5,0.2,1.5v7.6c0,3.6-1.7,5.7-5.5,6.5c-0.7,0.2-1.2,0.2-1.4,0.2l0,15.5
			c0.4,0.1,0.6,0.1,0.7,0.1c4.6,0.5,5.6,2.8,6,4.7c0.1,0.3,0.2,0.6,0.2,0.8v9.1c0,1.9-0.5,3.2-1.7,3.9l-0.3,0.2
			c-1.4,1.4-3.5,2.1-6.5,2.1h-5.8v15.5h7c4.5,0,8.4-0.9,11.5-2.6c7.4-4.1,11.1-9.8,11.1-16.9V85c0-1-0.1-2.2-0.3-3.4
			c-0.8-5.3-2.8-9.2-5.9-11.6C427.3,67.5,429.2,63.6,430,58.3z"/>
	</g>
</g>
<g>
	<g>
		<path class="st0" d="M501.2,95.5c-3.2-0.1-6.2-0.8-9-2c-3.1-1.4-5.8-3.2-8.1-5.5c-2.3-2.3-4.2-5-5.5-8.1c-1.4-3.1-2.1-6.4-2.1-9.9
			c0-3.5,0.7-6.8,2.1-9.9c1.4-3.1,3.2-5.8,5.5-8.2c2.3-2.3,5-4.2,8.1-5.6c2.8-1.2,5.8-1.9,9-2V26.5c-5.7,0.1-11,1.2-16,3.4
			c-5.3,2.3-9.8,5.4-13.8,9.3c-3.9,3.9-7,8.5-9.3,13.8c-2.3,5.3-3.4,11-3.4,17c0,6,1.1,11.7,3.4,16.9c2.3,5.3,5.4,9.8,9.3,13.8
			c3.9,3.9,8.5,7,13.8,9.3c5,2.1,10.3,3.2,16,3.4V95.5z"/>
		<path class="st0" d="M542.2,53c-2.3-5.3-5.4-9.9-9.3-13.8c-3.9-3.9-8.5-7-13.8-9.3c-4.4-1.9-9.1-3-14-3.3v17.8
			c2.5,0.3,4.8,0.9,7,1.9c3.1,1.4,5.7,3.2,8.1,5.6c2.3,2.4,4.1,5.1,5.5,8.2c1.3,3.1,2,6.4,2,9.9c0,3.5-0.7,6.8-2,9.9
			c-1.3,3.1-3.2,5.8-5.5,8.1c-2.3,2.3-5,4.2-8.1,5.5c-2.2,1-4.6,1.6-7,1.9v17.8c4.9-0.3,9.6-1.4,14-3.3c5.3-2.3,9.9-5.4,13.8-9.3
			c3.9-3.9,7-8.5,9.3-13.8c2.3-5.2,3.5-10.9,3.5-16.9C545.6,63.9,544.5,58.3,542.2,53z"/>
	</g>
</g>
<rect x="437.3" y="28.1" class="st0" width="14.5" height="16.1"/>
<path class="st0" d="M405.8,57c1.2,0,2.2-1,2.2-2.2v-6.5c0-1.2-1-2.2-2.2-2.2h-16c-1.2,0-2.2,1-2.2,2.2v6.5c0,1.2,1,2.2,2.2,2.2h6.1
	v25.3h-6.1c-1.2,0-2.2,1-2.2,2.2v6.5c0,1.2,1,2.2,2.2,2.2h16c1.2,0,2.2-1,2.2-2.2v-6.5c0-1.2-1-2.2-2.2-2.2h-6.1V57H405.8z"/>
</svg>
